<svg width="188" height="188" viewBox="0 0 188 188" fill="none" xmlns="http://www.w3.org/2000/svg">
<g opacity="0.88">
<path d="M120.113 24C85.892 24 58.1426 51.7404 58.1426 85.9703C58.1426 120.2 85.883 147.941 120.113 147.941C154.343 147.941 182.083 120.2 182.083 85.9703C182.083 51.7404 154.343 24 120.113 24ZM120.113 126.258C97.863 126.258 79.8254 108.22 79.8254 85.9703C79.8254 63.7204 97.863 45.6829 120.113 45.6829C142.363 45.6829 160.4 63.7204 160.4 85.9703C160.4 108.22 142.363 126.258 120.113 126.258Z" fill="#C4D2E1" stroke="black" stroke-width="2.25468" stroke-miterlimit="10"/>
<path d="M120.112 107.572C132.047 107.572 141.723 97.8968 141.723 85.9614C141.723 74.0261 132.047 64.3506 120.112 64.3506C108.176 64.3506 98.501 74.0261 98.501 85.9614C98.501 97.8968 108.176 107.572 120.112 107.572Z" fill="#C4D2E1" stroke="black" stroke-width="2.25468" stroke-miterlimit="10"/>
<path d="M120.112 90.1922C122.449 90.1922 124.343 88.2982 124.343 85.9618C124.343 83.6254 122.449 81.7314 120.112 81.7314C117.776 81.7314 115.882 83.6254 115.882 85.9618C115.882 88.2982 117.776 90.1922 120.112 90.1922Z" fill="#C4D2E1" stroke="black" stroke-width="2.25468" stroke-miterlimit="10"/>
<path d="M7.38656 93.3934L12.3878 90.1787" stroke="black" stroke-width="2" stroke-miterlimit="10" stroke-linecap="round"/>
<path d="M15.7232 87.7805L28.0798 79.8284" stroke="black" stroke-width="2" stroke-miterlimit="10" stroke-linecap="round"/>
<path d="M10.9304 103.215L26.2216 93.3707" stroke="black" stroke-width="2" stroke-miterlimit="10" stroke-linecap="round"/>
<path d="M12.4569 113.238L38.6421 96.3905" stroke="black" stroke-width="2" stroke-miterlimit="10" stroke-linecap="round"/>
<path d="M41.3107 94.5562L45.1289 92.092" stroke="black" stroke-width="2" stroke-miterlimit="10" stroke-linecap="round"/>
<path d="M45.014 156.576L71.1914 139.73" stroke="black" stroke-width="2" stroke-miterlimit="10" stroke-linecap="round"/>
<path d="M73.8605 137.897L77.6865 135.431" stroke="black" stroke-width="2" stroke-miterlimit="10" stroke-linecap="round"/>
<path d="M45.8159 104.173L58.1662 96.2302" stroke="black" stroke-width="2" stroke-miterlimit="10" stroke-linecap="round"/>
<path d="M35.2388 111.003L42.2989 106.467" stroke="black" stroke-width="2" stroke-miterlimit="10" stroke-linecap="round"/>
<path d="M78.437 147.59L90.7951 139.645" stroke="black" stroke-width="2" stroke-miterlimit="10" stroke-linecap="round"/>
<path d="M67.8672 154.418L74.9259 149.874" stroke="black" stroke-width="2" stroke-miterlimit="10" stroke-linecap="round"/>
<path d="M46.6675 115.143L59.0241 107.191" stroke="black" stroke-width="2" stroke-miterlimit="10" stroke-linecap="round"/>
<path d="M56.8009 127.049L110.666 92.3181" stroke="black" stroke-width="2" stroke-miterlimit="10"/>
<path d="M56.9736 125.546L46.7178 120.341L44.4599 121.813L54.7157 127.019L52.4563 128.483L42.202 123.286L39.9441 124.758L50.1983 129.955L47.9483 131.426L37.694 126.229L35.4361 127.701L45.6903 132.899L43.3819 134.405L44.6619 136.374L46.9703 134.868L47.5917 146.344L49.8496 144.871L49.2282 133.395L51.4861 131.923L52.1076 143.399L54.3655 141.927L53.7362 130.452L55.9941 128.98L56.617 140.464L58.875 138.991L58.2521 127.508L56.9736 125.546Z" fill="black"/>
<path d="M113.875 90.065L100.219 109.822L99.6756 99.3221L90.2911 94.603L113.875 90.065Z" fill="#C4D2E1" stroke="black" stroke-width="2" stroke-miterlimit="10"/>
</g>
</svg>
