<svg width="188" height="188" viewBox="0 0 188 188" fill="none" xmlns="http://www.w3.org/2000/svg">
<g opacity="0.88">
<rect x="89" y="39" width="90" height="116" stroke="black" stroke-width="2"/>
<path d="M101.359 125.59L102 120.154L96.9511 118.216C97.0702 116.54 96.8228 113.378 96.8228 113.378L101.569 111.195L100.103 105.406L94.5687 106.095C94.1563 104.102 92.2595 101.058 92.2595 101.058L95.3659 97.3348L91.2974 93.1586L86.7433 95.9578C84.7091 93.8743 82.794 93.1948 82.794 93.1948L83.6553 87.5692L78.3498 85.694L75.1977 90.2235C74.2905 89.8068 70.5336 89.2361 70.5336 89.2361L68.9667 84L63.5513 84.1359L62.5342 89.6709L57.7326 91.0841L53.8749 86.7177L49.0001 89.3357L50.5762 95.0972C49.0093 96.1752 47.1767 98.2407 47.1767 98.2407L41.6513 96.0393L38.4625 100.442L42.2835 104.682C41.4955 105.678 40.5608 109.084 40.5608 109.084L34.8613 109.157L34 114.782L39.333 116.775C38.9481 117.799 39.5254 121.857 39.5254 121.857L34.8338 124.167L36.0617 129.63L41.5688 129.34C42.366 131.759 43.9604 133.697 43.9604 133.697L41.0557 138.154L44.7209 142.303L49.3667 139.35C49.7515 139.776 53.7558 142.258 53.7558 142.258L52.4821 147.331L57.9709 149.415L61.0314 145.048C62.6624 145.664 66.1903 145.909 66.1903 145.909L67.3173 151L73.4475 150.547L73.8415 145.184C75.3718 145.429 78.7988 143.862 78.7988 143.862L82.4274 147.893L87.2106 145.429L85.7995 140.283C87.7971 138.825 89.3456 136.705 89.3456 136.705L94.5595 138.734L97.5925 134.241L94.028 130.454C94.5503 129.92 95.8423 125.889 95.8423 125.889L101.349 125.599L101.359 125.59ZM68.0779 122.446C65.3106 122.482 63.0381 120.299 63.0015 117.572C62.9648 114.837 65.1732 112.59 67.9313 112.554C70.6894 112.518 72.971 114.701 73.0077 117.428C73.0443 120.163 70.836 122.41 68.0779 122.446Z" fill="#C4D2E1" stroke="black" stroke-width="2" stroke-miterlimit="10"/>
<rect x="110" y="33" width="48" height="10" fill="#C4D2E1" stroke="black" stroke-width="2"/>
<path d="M71 66.3051V61.2981L66.2174 60.0736C66.1353 58.5316 65.5785 55.7016 65.5785 55.7016L69.6218 53.2071L67.6686 48.1094L62.7492 49.3249C62.1559 47.5561 60.1206 44.9982 60.1206 44.9982L62.521 41.2883L58.3956 37.9322L54.5805 40.9618C52.5177 39.2837 50.7106 38.8755 50.7106 38.8755L50.8749 33.6781L45.8824 32.5442L43.5276 36.9888C42.6605 36.7077 39.2105 36.5897 39.2105 36.5897L37.2299 32L32.347 32.6984L32.0275 37.8324L27.8473 39.6284L23.8953 36.0727L19.779 38.9662L21.8235 44.0277C20.5275 45.1706 19.0945 47.2477 19.0945 47.2477L13.8647 45.8327L11.4643 50.1685L15.3798 53.6153C14.7774 54.604 14.3028 57.7969 14.3028 57.7969L9.16429 58.4772L9 63.6746L14.0381 64.9173C13.8008 65.8879 14.7592 69.5071 14.7592 69.5071L10.7706 72.1013L12.4683 76.9268L17.4151 76.0742C18.3917 78.1877 20.0437 79.775 20.0437 79.775L17.8989 84.138L21.6592 87.5213L25.5382 84.3466C25.9307 84.6913 29.8188 86.5145 29.8188 86.5145L29.2164 91.2584L34.4006 92.5646L36.6915 88.2651C38.2339 88.6552 41.4466 88.4919 41.4466 88.4919L43.0165 93L48.5018 91.9297L48.2737 87.0134C50.0078 86.9499 52.7003 85.2446 52.609 85.2809L56.3237 88.5554L60.3761 85.807L58.5416 81.2807C60.1845 79.7478 61.3527 77.6525 61.3527 77.6525L66.2813 78.9405L68.5266 74.5413L64.894 71.4845C65.3047 70.9402 66.0349 67.1487 66.0349 67.1487L70.9818 66.2961L71 66.3051ZM40.5887 67.0036C38.097 67.3301 35.8061 65.5886 35.4776 63.1123C35.149 60.636 36.9014 58.3593 39.3931 58.0327C41.8847 57.7062 44.1756 59.4477 44.5042 61.924C44.8328 64.4003 43.0804 66.677 40.5887 67.0036Z" fill="#C4D2E1" stroke="black" stroke-width="2" stroke-miterlimit="10"/>
<path d="M107.063 138.982V104.225H157.039V62.1553" stroke="black" stroke-width="2" stroke-miterlimit="10" stroke-linecap="round"/>
<path d="M165.111 69.1375L163.701 70.4795L157.078 63.5554L150.65 70.6643L149.201 69.3612L157.039 60.6963L165.111 69.1375Z" fill="black"/>
<path d="M109.165 72.5703L129.227 92.0687" stroke="black" stroke-width="2" stroke-miterlimit="10" stroke-linecap="round"/>
<path d="M128.935 72.2881L109.446 92.3505" stroke="black" stroke-width="2" stroke-miterlimit="10" stroke-linecap="round"/>
<path d="M134.77 115.593L154.832 135.081" stroke="black" stroke-width="2" stroke-miterlimit="10" stroke-linecap="round"/>
<path d="M154.54 115.311L135.051 135.364" stroke="black" stroke-width="2" stroke-miterlimit="10" stroke-linecap="round"/>
</g>
</svg>
