<svg xmlns="http://www.w3.org/2000/svg" fill="none" viewBox="14.5 5 134.26 30">
<path d="M31.4336 11.0674V29.1831C36.4235 29.1831 40.4711 25.1287 40.4711 20.1252C40.4711 15.1217 36.4235 11.0674 31.4336 11.0674Z" fill="#6B00C7"/>
<path d="M31.4343 5C24.7765 5.41357 19.4883 10.9662 19.4883 17.746H24.4714C24.4714 13.7256 27.5291 10.4103 31.4343 10.0103V5Z" fill="#6B00C7"/>
<path d="M31.4331 30.0098C24.816 29.8471 19.4803 24.4097 19.4803 17.7451H14.4971C14.4971 27.1691 22.0634 34.8506 31.4331 34.9998V30.003V30.0098Z" fill="#6B00C7"/>
<path d="M145.035 26.6677C144.282 26.6677 143.638 26.5863 143.103 26.4304C142.581 26.288 142.154 26.1253 141.821 25.9558L142.059 24.6948C142.432 24.8507 142.859 25.0066 143.34 25.149C143.835 25.2914 144.357 25.366 144.927 25.366C145.618 25.366 146.16 25.2304 146.554 24.9524C146.947 24.6609 147.137 24.1592 147.137 23.4337C147.137 23.1015 147.103 22.8235 147.028 22.6066C146.954 22.3896 146.825 22.2066 146.635 22.0642C146.445 21.9082 146.188 21.7659 145.855 21.6506C145.523 21.5218 145.089 21.3862 144.554 21.237C144.147 21.1218 143.774 20.993 143.428 20.8438C143.096 20.6879 142.804 20.4845 142.56 20.2336C142.33 19.9896 142.14 19.6913 141.998 19.3455C141.869 18.9862 141.801 18.5522 141.801 18.0438C141.801 16.959 142.12 16.1522 142.757 15.6166C143.408 15.081 144.276 14.8166 145.36 14.8166C146.025 14.8166 146.601 14.8844 147.096 15.0132C147.604 15.142 148.025 15.2979 148.357 15.4674L148.099 16.7013C147.882 16.6268 147.672 16.5658 147.469 16.5047C147.279 16.4302 147.082 16.3759 146.886 16.3285C146.682 16.2878 146.459 16.2471 146.215 16.22C145.984 16.1929 145.72 16.1793 145.435 16.1793C144.757 16.1793 144.242 16.3013 143.896 16.5454C143.55 16.7759 143.374 17.2437 143.374 17.9556C143.374 18.2743 143.415 18.5319 143.503 18.7353C143.591 18.9387 143.72 19.1082 143.896 19.2574C144.086 19.3862 144.33 19.5014 144.635 19.6031C144.94 19.7048 145.306 19.8133 145.74 19.9285C146.249 20.0709 146.689 20.2336 147.062 20.4031C147.435 20.5794 147.747 20.7964 147.998 21.054C148.242 21.3116 148.432 21.6303 148.56 22.01C148.689 22.3896 148.757 22.8371 148.757 23.3524C148.757 24.3083 148.445 25.0948 147.821 25.7185C147.211 26.3423 146.289 26.6541 145.042 26.6541L145.035 26.6677ZM137.387 20.7896L135.523 20.9862C134.628 21.0879 133.984 21.3048 133.591 21.6371C133.197 21.9557 133.008 22.5049 133.008 23.2846V23.4337C133.008 24.1456 133.177 24.6473 133.509 24.9524C133.855 25.2575 134.377 25.4066 135.069 25.4066C135.679 25.4066 136.153 25.2982 136.499 25.0812C136.858 24.8643 137.157 24.6202 137.387 24.3422V20.7828V20.7896ZM137.387 18.4912C137.387 18.1726 137.36 17.8743 137.299 17.6031C137.238 17.3319 137.143 17.0946 136.994 16.9115C136.865 16.7081 136.669 16.5522 136.411 16.4369C136.167 16.3217 135.848 16.2607 135.455 16.2607C134.906 16.2607 134.364 16.3352 133.828 16.4776C133.306 16.6064 132.75 16.7759 132.16 16.9793L131.902 15.6776C132.424 15.4471 132.974 15.2505 133.55 15.0945C134.126 14.9183 134.784 14.8369 135.523 14.8369C136.784 14.8369 137.679 15.1759 138.214 15.8539C138.764 16.5183 139.042 17.5963 139.042 19.0879V24.6202C139.042 24.9388 139.103 25.1558 139.218 25.271C139.333 25.3727 139.523 25.4202 139.781 25.4202H140.214L140.255 26.3084C140.154 26.3829 140.011 26.444 139.821 26.505C139.631 26.5796 139.408 26.6135 139.15 26.6135C138.845 26.6135 138.54 26.5524 138.242 26.4372L137.482 25.2236L136.486 26.3287C136.269 26.4304 136.004 26.5118 135.686 26.566C135.381 26.6406 135.042 26.6745 134.669 26.6745C134.221 26.6745 133.794 26.6134 133.387 26.4982C132.994 26.3829 132.648 26.1999 132.343 25.9558C132.052 25.6982 131.821 25.366 131.652 24.9592C131.475 24.5388 131.394 24.0236 131.394 23.4201C131.394 22.8574 131.475 22.3693 131.631 21.9693C131.787 21.5489 132.031 21.2032 132.35 20.9252C132.682 20.6472 133.102 20.4303 133.611 20.2743C134.133 20.1184 134.736 19.9963 135.435 19.9285L137.408 19.7523V18.4912H137.387ZM123.773 15.325C123.99 15.2098 124.275 15.1013 124.621 14.9996C124.967 14.8844 125.367 14.8233 125.814 14.8233C126.743 14.8233 127.462 15.1013 127.984 15.6505C128.519 16.1996 128.784 17.1081 128.784 18.3827V26.3694H127.116V18.1251C127.116 17.3861 126.967 16.8844 126.662 16.6064C126.37 16.3285 125.95 16.1929 125.401 16.1929C124.851 16.1929 124.411 16.2878 124.031 16.4776C123.672 16.6539 123.285 16.8844 122.879 17.1692V26.3694H121.211V18.1251C121.211 17.3861 121.055 16.8844 120.736 16.6064C120.417 16.3285 120.004 16.1929 119.502 16.1929C119 16.1929 118.526 16.281 118.133 16.4505C117.76 16.6064 117.367 16.837 116.96 17.1217V26.3626H115.292V15.0403H116.248L116.899 16.4302L117.875 15.325C118.106 15.2098 118.39 15.1013 118.722 14.9996C119.068 14.8844 119.475 14.8233 119.936 14.8233C120.356 14.8233 120.716 14.864 121.021 14.9522C121.34 15.0403 121.638 15.1623 121.909 15.3183L122.689 16.5115L123.773 15.3183V15.325ZM110.241 15.0403H111.909V26.3626H110.953L110.282 25.0202L109.326 26.1456C109.082 26.2609 108.777 26.3626 108.417 26.4507C108.058 26.5524 107.637 26.5999 107.156 26.5999C106.261 26.5999 105.529 26.3219 104.966 25.7727C104.417 25.21 104.139 24.288 104.139 23.0201V15.0335H105.807V23.2778C105.807 24.0439 105.963 24.5727 106.282 24.8643C106.614 25.1558 107.041 25.2982 107.563 25.2982C108.153 25.2982 108.648 25.2168 109.041 25.0609C109.448 24.8846 109.841 24.6473 110.234 24.3422V15.0335L110.241 15.0403ZM96.9797 19.793C98.0034 19.793 98.7288 19.5624 99.1492 19.1014C99.5695 18.6268 99.7796 17.8404 99.7796 16.7556V16.498C99.7796 15.4403 99.5627 14.7149 99.1288 14.3081C98.6949 13.8877 97.9627 13.6776 96.9389 13.6776H94.5931V19.793H96.9797ZM92.7897 12.2402H97.1288C97.9085 12.2402 98.5865 12.3487 99.1695 12.5657C99.7458 12.7826 100.227 13.0877 100.6 13.4742C100.973 13.8674 101.251 14.3284 101.427 14.864C101.617 15.3996 101.712 15.9827 101.712 16.62C101.712 17.2573 101.617 17.8268 101.427 18.376C101.251 18.9116 100.98 19.3794 100.6 19.7862C100.241 20.193 99.7661 20.5116 99.1898 20.7421C98.6135 20.9726 97.922 21.0879 97.1288 21.0879H94.5931V26.3626H92.7897V12.2402ZM83.4335 24.0642C83.6708 24.2134 83.9556 24.3693 84.3013 24.4981C84.6268 24.627 84.9929 24.6948 85.4268 24.6948C86.1184 24.6948 86.6404 24.4371 86.9658 23.8947C87.2913 23.3524 87.4675 22.4167 87.4675 21.115V20.098C87.4675 18.8845 87.2913 18.0166 86.9658 17.4946C86.6404 16.9929 86.1387 16.7353 85.4878 16.7353C85.0946 16.7353 84.7488 16.8031 84.4031 16.9115C84.0573 17.02 83.7318 17.1692 83.4267 17.3454V24.071L83.4335 24.0642ZM84.4302 15.0606C84.6268 14.9725 84.8641 14.8844 85.1692 14.803C85.4539 14.7352 85.7997 14.6945 86.2336 14.6945C87.5353 14.6945 88.4913 15.2166 89.1218 16.2336C89.7523 17.2776 90.0778 18.7489 90.0778 20.6608C90.0778 22.5727 89.7523 24.0032 89.1218 24.9321C88.4913 25.888 87.4743 26.3422 86.0844 26.3422C85.4743 26.3422 84.9793 26.2541 84.5454 26.0846C84.1115 25.9084 83.7454 25.7185 83.4403 25.4744V29.8813H80.9046V14.9318H82.5725L83.3319 16.3013L84.437 15.0674L84.4302 15.0606ZM76.1588 19.7455V19.3523C76.1588 18.3082 76.0096 17.576 75.7249 17.1421C75.4198 16.7285 74.9655 16.5115 74.3147 16.5115C73.9689 16.5115 73.6841 16.5793 73.4468 16.6607C73.1892 16.7691 72.9926 16.9454 72.8164 17.1827C72.6401 17.4404 72.5112 17.7658 72.4231 18.1794C72.3349 18.5929 72.2739 19.115 72.2468 19.7387H76.152L76.1588 19.7455ZM72.2333 21.4608C72.2333 22.071 72.3011 22.5862 72.3825 22.9795C72.4706 23.393 72.6198 23.7185 72.8164 23.9761C73.013 24.2337 73.2706 24.41 73.596 24.4981C73.9011 24.6066 74.2876 24.6473 74.7486 24.6473C75.291 24.6473 75.813 24.5795 76.3079 24.4304C76.8096 24.3015 77.3046 24.1252 77.7859 23.9286L78.1317 25.7931C77.786 25.9897 77.3046 26.1863 76.6808 26.3762C76.0503 26.5728 75.3588 26.6609 74.5791 26.6609C72.9113 26.6609 71.6706 26.1592 70.8502 25.1422C70.0231 24.1456 69.6162 22.6473 69.6162 20.654C69.6162 18.6607 70.0299 17.1827 70.8774 16.1861C71.7248 15.1895 72.8706 14.6877 74.3079 14.6877C75.0672 14.6877 75.7181 14.8166 76.2605 15.0539C76.7825 15.3115 77.2165 15.664 77.5622 16.1386C77.908 16.6132 78.1453 17.1827 78.3216 17.8336C78.4707 18.5048 78.5589 19.2641 78.5589 20.0913V21.4608H72.2468H72.2333ZM65.5483 19.7455V19.3523C65.5483 18.3082 65.3993 17.576 65.1145 17.1421C64.8094 16.7285 64.3551 16.5115 63.7043 16.5115C63.3585 16.5115 63.0737 16.5793 62.8364 16.6607C62.5788 16.7691 62.3822 16.9454 62.2059 17.1827C62.0297 17.4404 61.9008 17.7658 61.8127 18.1794C61.7245 18.5929 61.6636 19.115 61.6365 19.7387H65.5416L65.5483 19.7455ZM61.6229 21.4608C61.6229 22.071 61.6907 22.5862 61.772 22.9795C61.8602 23.393 62.0093 23.7185 62.2059 23.9761C62.4026 24.2337 62.6602 24.41 62.9856 24.4981C63.2907 24.6066 63.6771 24.6473 64.1382 24.6473C64.6806 24.6473 65.2026 24.5795 65.6976 24.4304C66.1993 24.3015 66.6941 24.1252 67.1755 23.9286L67.5213 25.7931C67.1755 25.9897 66.6941 26.1863 66.0704 26.3762C65.4399 26.5728 64.7484 26.6609 63.9687 26.6609C62.3008 26.6609 61.0601 26.1592 60.2398 25.1422C59.4126 24.1456 59.0059 22.6473 59.0059 20.654C59.0059 18.6607 59.4194 17.1827 60.2669 16.1861C61.1144 15.1895 62.2601 14.6877 63.6975 14.6877C64.4568 14.6877 65.1077 14.8166 65.6501 15.0539C66.1721 15.3115 66.606 15.664 66.9518 16.1386C67.2976 16.6132 67.5349 17.1827 67.7111 17.8336C67.8603 18.5048 67.9484 19.2641 67.9484 20.0913V21.4608H61.6365H61.6229ZM50.8769 24.2609C51.4396 24.2609 51.9617 24.2202 52.3956 24.0846C52.8295 23.9761 53.1752 23.7592 53.4803 23.4134C53.7651 23.0676 53.982 22.5862 54.1312 21.9828C54.26 21.3726 54.3482 20.593 54.3482 19.5963V18.7489C54.3482 17.8607 54.26 17.142 54.1312 16.5793C53.982 16.0166 53.7651 15.5827 53.4803 15.2573C53.1752 14.9522 52.8091 14.7352 52.3752 14.6064C51.9413 14.4979 51.4192 14.4301 50.8362 14.4301H49.2497V24.2609H50.8769ZM46.4971 12.2402H51.1819C53.2227 12.2402 54.7617 12.8504 55.7583 14.064C56.755 15.2776 57.2566 17.0132 57.2566 19.2709C57.2566 21.5286 56.7346 23.3727 55.6973 24.5659C54.6532 25.7795 53.0938 26.3694 50.9921 26.3694H46.5039V12.247L46.4971 12.2402Z" fill="#6B00C7"/>
</svg>