<svg xmlns="http://www.w3.org/2000/svg" fill="none" viewBox="24.89 5.13 116.28 29.75">
<path d="M50.5354 17.4161C45.8058 12.8892 39.0696 12.2676 35.4886 16.031C31.9009 19.7944 32.8266 26.5103 37.5494 31.0372C38.9277 32.3547 40.4682 33.3344 42.0559 33.983C41.1979 34.1452 40.3061 34.233 39.4074 34.233C31.3875 34.233 24.8877 27.713 24.8877 19.6795C24.8877 11.646 31.3875 5.12598 39.4074 5.12598C47.4274 5.12598 53.9272 11.6392 53.9272 19.6795C53.9272 20.4497 53.8663 21.2064 53.7515 21.9497C53.0353 20.3349 51.961 18.7809 50.5489 17.4228L50.5354 17.4161Z" fill="#0035C7"/>
<path d="M53.7375 21.9414C55.3996 25.7048 55.1024 29.7857 52.5957 32.414C50.0485 35.0828 45.9203 35.5422 42.0488 33.9747C48.0689 32.8599 52.7849 28.029 53.7375 21.9414Z" fill="#0035C7"/>
<path d="M135.939 21.1523C136.784 21.1523 137.385 20.9564 137.736 20.5713C138.081 20.1794 138.256 19.5105 138.256 18.5578V18.1254C138.256 17.22 138.06 16.5714 137.716 16.2201C137.351 15.8755 136.743 15.6998 135.898 15.6998H134.081V21.1455H135.939V21.1523ZM131.331 13.6053H136.088C137.75 13.6053 139.006 14.0174 139.871 14.835C140.736 15.6525 141.168 16.8011 141.168 18.2943C141.168 19.7875 140.736 20.8888 139.891 21.7536C139.027 22.6185 137.77 23.0509 136.088 23.0509H134.074V27.6791H131.331V13.6053ZM125.243 27.9831C124.162 27.9831 123.257 27.8075 122.521 27.4223C121.784 27.0305 121.183 26.517 120.723 25.8413C120.25 25.1927 119.926 24.4157 119.73 23.5036C119.514 22.6185 119.426 21.6455 119.426 20.605C119.426 19.5645 119.514 18.6186 119.73 17.7268C119.946 16.8417 120.271 16.0647 120.744 15.416C121.217 14.7674 121.825 14.2674 122.581 13.9026C123.318 13.5377 124.243 13.3418 125.325 13.3418C126.061 13.3418 126.73 13.4296 127.311 13.558C127.892 13.7067 128.412 13.8823 128.892 14.0985L128.608 16.2809C127.96 16.0849 127.378 15.9363 126.878 15.8079C126.378 15.6998 125.838 15.6322 125.237 15.6322C124.804 15.6322 124.392 15.6998 124.048 15.8282C123.703 15.9566 123.399 16.1728 123.142 16.4971C122.885 16.8417 122.669 17.2944 122.534 17.8619C122.406 18.4227 122.338 19.1592 122.338 20.0645V20.9699C122.338 21.9226 122.406 22.6996 122.534 23.3076C122.662 23.936 122.879 24.4292 123.142 24.8008C123.399 25.1927 123.703 25.4494 124.075 25.5981C124.446 25.7467 124.852 25.8143 125.304 25.8143C125.953 25.8143 126.514 25.7467 126.993 25.5778C127.466 25.4021 128.007 25.213 128.595 24.9495L129.155 27.0237C128.635 27.2805 128.074 27.4967 127.426 27.6926C126.777 27.8885 126.061 27.9764 125.243 27.9764V27.9831ZM113.953 27.9831C113.203 27.9831 112.561 27.9021 112.028 27.7467C111.507 27.6048 111.082 27.4426 110.751 27.2737L110.987 26.017C111.359 26.1724 111.784 26.3278 112.264 26.4697C112.757 26.6116 113.278 26.6859 113.845 26.6859C114.534 26.6859 115.075 26.5507 115.467 26.2737C115.859 25.9832 116.048 25.4832 116.048 24.7603C116.048 24.4292 116.014 24.1522 115.94 23.936C115.865 23.7198 115.737 23.5374 115.548 23.3955C115.359 23.2401 115.102 23.0982 114.771 22.9833C114.44 22.8549 114.007 22.7198 113.474 22.5712C113.068 22.4563 112.697 22.3279 112.352 22.1793C112.021 22.0239 111.73 21.8212 111.487 21.5712C111.257 21.328 111.068 21.0307 110.926 20.6861C110.798 20.328 110.73 19.8956 110.73 19.3889C110.73 18.3078 111.048 17.5038 111.683 16.97C112.332 16.4363 113.197 16.1728 114.278 16.1728C114.94 16.1728 115.514 16.2403 116.007 16.3687C116.514 16.4971 116.933 16.6525 117.264 16.8214L117.007 18.0511C116.791 17.9768 116.582 17.9159 116.379 17.8551C116.19 17.7808 115.994 17.7268 115.798 17.6795C115.595 17.6389 115.372 17.5984 115.129 17.5714C114.899 17.5443 114.636 17.5308 114.352 17.5308C113.676 17.5308 113.163 17.6524 112.818 17.8957C112.474 18.1254 112.298 18.5916 112.298 19.301C112.298 19.6186 112.339 19.8753 112.426 20.078C112.514 20.2807 112.643 20.4496 112.818 20.5983C113.007 20.7266 113.251 20.8415 113.555 20.9429C113.859 21.0442 114.224 21.1523 114.656 21.2672C115.163 21.4091 115.602 21.5712 115.974 21.7401C116.345 21.909 116.656 22.132 116.906 22.3887C117.149 22.6455 117.338 22.963 117.467 23.3414C117.595 23.713 117.663 24.1657 117.663 24.6792C117.663 25.6319 117.352 26.4156 116.73 27.0372C116.122 27.6588 115.203 27.9696 113.96 27.9696L113.953 27.9831ZM106.332 22.1252L104.474 22.3212C103.582 22.4225 102.94 22.6387 102.548 22.9698C102.156 23.2874 101.967 23.8346 101.967 24.6116V24.7603C101.967 25.4697 102.136 25.9697 102.467 26.2737C102.812 26.5778 103.332 26.7264 104.021 26.7264C104.629 26.7264 105.102 26.6183 105.447 26.4021C105.805 26.1859 106.102 25.9427 106.332 25.6656V22.1185V22.1252ZM106.332 19.8348C106.332 19.5172 106.305 19.2199 106.244 18.9497C106.183 18.6794 106.089 18.443 105.94 18.2605C105.812 18.0578 105.616 17.9024 105.359 17.7876C105.116 17.6727 104.798 17.6119 104.406 17.6119C103.859 17.6119 103.319 17.6862 102.785 17.8281C102.265 17.9565 101.71 18.1254 101.123 18.3281L100.866 17.0308C101.386 16.8011 101.933 16.6052 102.508 16.4498C103.082 16.2741 103.737 16.193 104.474 16.193C105.731 16.193 106.622 16.5309 107.156 17.2065C107.704 17.8687 107.981 18.9429 107.981 20.4294V25.9427C107.981 26.2602 108.041 26.4764 108.156 26.5913C108.271 26.6926 108.46 26.7399 108.717 26.7399H109.149L109.19 27.625C109.089 27.6994 108.947 27.7602 108.758 27.821C108.568 27.8953 108.345 27.9291 108.089 27.9291C107.785 27.9291 107.481 27.8683 107.183 27.7534L106.427 26.544L105.433 27.6453C105.217 27.7467 104.954 27.8277 104.636 27.8818C104.332 27.9561 103.994 27.9899 103.623 27.9899C103.177 27.9899 102.751 27.9291 102.346 27.8142C101.954 27.6994 101.609 27.5169 101.305 27.2737C101.015 27.017 100.785 26.6859 100.616 26.2805C100.44 25.8616 100.359 25.3481 100.359 24.7468C100.359 24.186 100.44 23.6995 100.596 23.3009C100.751 22.882 100.994 22.5374 101.312 22.2604C101.643 21.9834 102.062 21.7671 102.569 21.6117C103.089 21.4563 103.69 21.3347 104.386 21.2672L106.352 21.0915V19.8348H106.332ZM92.7649 16.6795C92.9811 16.5646 93.2649 16.4565 93.6094 16.3552C93.954 16.2403 94.3527 16.1795 94.7986 16.1795C95.7242 16.1795 96.4405 16.4566 96.9607 17.0038C97.4945 17.5511 97.7579 18.4565 97.7579 19.7267V27.6859H96.0959V19.4699C96.0959 18.7335 95.9472 18.2335 95.6432 17.9565C95.3526 17.6795 94.9337 17.5443 94.3865 17.5443C93.8392 17.5443 93.4 17.6389 93.0216 17.8281C92.6635 18.0038 92.2784 18.2335 91.8731 18.5173V27.6859H90.211V19.4699C90.211 18.7335 90.0555 18.2335 89.738 17.9565C89.4204 17.6795 89.0083 17.5443 88.5083 17.5443C88.0083 17.5443 87.5354 17.6322 87.1435 17.8011C86.7719 17.9565 86.38 18.1862 85.9746 18.47V27.6791H84.3125V16.3957H85.2652L85.9138 17.7808L86.8868 16.6795C87.1165 16.5646 87.4002 16.4565 87.7313 16.3552C88.0759 16.2403 88.4813 16.1795 88.9408 16.1795C89.3597 16.1795 89.7177 16.2201 90.0218 16.3079C90.3393 16.3957 90.6366 16.5173 90.9068 16.6727L91.6839 17.8619L92.7649 16.6727V16.6795ZM79.2789 16.3957H80.941V27.6791H79.9884L79.3195 26.3413L78.3668 27.4629C78.1236 27.5777 77.8196 27.6791 77.4615 27.7669C77.1034 27.8683 76.6844 27.9156 76.2047 27.9156C75.3128 27.9156 74.5831 27.6386 74.0223 27.0913C73.4751 26.5305 73.1981 25.6116 73.1981 24.3481V16.389H74.8601V24.6049C74.8601 25.3684 75.0156 25.8954 75.3332 26.1859C75.6642 26.4764 76.0899 26.6183 76.6101 26.6183C77.198 26.6183 77.6911 26.5372 78.083 26.3818C78.4884 26.2062 78.8803 25.9697 79.2722 25.6656V16.389L79.2789 16.3957ZM66.0632 21.132C67.0834 21.132 67.8064 20.9023 68.2253 20.4429C68.6442 19.9699 68.8536 19.1862 68.8536 18.1051V17.8484C68.8536 16.7944 68.6374 16.0714 68.205 15.666C67.7726 15.2471 67.0429 15.0377 66.0227 15.0377H63.6849V21.132H66.0632ZM61.8877 13.6053H66.2119C66.9889 13.6053 67.6645 13.7134 68.2456 13.9296C68.8199 14.1458 69.2996 14.4499 69.6712 14.835C70.0428 15.2201 70.3198 15.6863 70.4955 16.2201C70.6847 16.7538 70.7793 17.3349 70.7793 17.97C70.7793 18.6051 70.6847 19.1727 70.4955 19.7199C70.3198 20.2537 70.0496 20.7199 69.6712 21.1253C69.3131 21.5307 68.8401 21.8482 68.2658 22.0779C67.6915 22.3077 67.0024 22.4225 66.2119 22.4225H63.6849V27.6791H61.8877V13.6053Z" fill="#0035C7"/>
</svg>