<svg xmlns="http://www.w3.org/2000/svg" fill="none" viewBox="38.1 5.13 90.3 29.75">
<path d="M62.6352 17.9672C62.307 17.4849 61.972 17.0092 61.5835 16.5738C60.6255 15.4885 60.0025 14.2291 59.5135 12.8759C59.3192 12.3266 59.0579 11.784 58.7699 11.2681C58.0866 10.0221 56.9946 9.48619 55.5878 9.51299C54.7036 9.63357 53.8126 9.73407 52.9284 9.88144C52.4929 9.95513 52.0508 9.96852 51.622 9.95512C51.1866 9.96852 50.7511 9.95513 50.3157 9.88144C49.4314 9.73407 48.5405 9.63357 47.6562 9.51299C46.2561 9.48619 45.1575 10.0221 44.4742 11.2681C44.1861 11.784 43.9315 12.3199 43.7305 12.8759C43.2482 14.2291 42.6252 15.4885 41.6606 16.5738C41.2787 17.0092 40.9371 17.4849 40.6088 17.9672C39.7714 19.2132 39.6508 20.5128 40.4748 21.8124C40.8567 22.4153 41.2921 22.9848 41.741 23.5475C42.4042 24.3648 42.9803 25.2356 43.3688 26.2271C43.677 27.0243 43.9918 27.8282 44.3804 28.5985C44.9967 29.8379 46.0216 30.5011 47.415 30.4676C48.1519 30.4542 48.8955 30.3671 49.6257 30.2398C50.2956 30.1192 50.9655 30.0723 51.6287 30.079C52.2919 30.0723 52.9618 30.1192 53.6317 30.2398C54.3619 30.3671 55.1055 30.4542 55.8424 30.4676C57.2358 30.4944 58.2541 29.8379 58.8771 28.5985C59.2589 27.8349 59.5738 27.031 59.8887 26.2271C60.2705 25.2289 60.8466 24.3715 61.5165 23.5475C61.9654 22.9982 62.4008 22.422 62.7826 21.8124C63.6066 20.5128 63.4793 19.2199 62.6487 17.9672H62.6352ZM64.8526 17.5652C64.5646 19.2065 64.578 20.8277 64.8526 22.4689C65.0134 23.4537 65.1273 24.4652 65.1273 25.4567C65.1273 26.8635 64.5043 28.009 63.3186 28.7794C62.8295 29.101 62.2936 29.3756 61.7577 29.6101C60.7796 30.0388 59.7814 30.4006 58.8034 30.836C57.6243 31.3585 56.6731 32.2294 55.6749 33.0333C54.9179 33.6429 54.1409 34.2257 53.2231 34.5875C52.6872 34.8018 52.1512 34.8957 51.6153 34.8689C51.0861 34.8957 50.5502 34.8018 50.0076 34.5942C49.0898 34.2324 48.3127 33.6496 47.5557 33.04C46.5643 32.2428 45.613 31.3653 44.4273 30.8427C43.4492 30.4073 42.451 30.0455 41.473 29.6168C40.9371 29.3823 40.4079 29.101 39.9121 28.7861C38.7264 28.009 38.1034 26.8635 38.1034 25.4567C38.1034 24.4585 38.2173 23.4537 38.378 22.4689C38.646 20.8277 38.6661 19.2065 38.378 17.5652C38.2039 16.5939 38.1034 15.589 38.0967 14.6043C38.0967 13.164 38.7264 12.0117 39.9322 11.2012C40.7294 10.6652 41.607 10.2968 42.5047 9.97522C44.0856 9.4058 45.5527 8.66223 46.8523 7.56358C47.6227 6.91378 48.44 6.31086 49.2974 5.77493C50.0611 5.2993 50.8382 5.09164 51.6153 5.13183C52.3924 5.09834 53.1695 5.306 53.9332 5.77493C54.7907 6.30416 55.6079 6.90708 56.3783 7.56358C57.6712 8.66223 59.1451 9.4058 60.726 9.97522C61.6237 10.2968 62.5013 10.6652 63.2984 11.2012C64.5043 12.0184 65.1407 13.164 65.134 14.6043C65.134 15.589 65.0268 16.5939 64.8526 17.5652Z" fill="#006176"/>
<path d="M124.719 27.9958C123.976 27.9958 123.339 27.9154 122.81 27.7613C122.294 27.6206 121.872 27.4599 121.544 27.2924L121.779 26.0464C122.147 26.2005 122.569 26.3545 123.045 26.4952C123.534 26.6359 124.05 26.7096 124.612 26.7096C125.296 26.7096 125.832 26.5756 126.22 26.3009C126.609 26.0129 126.796 25.5171 126.796 24.8003C126.796 24.4721 126.763 24.1974 126.689 23.9831C126.615 23.7687 126.488 23.5878 126.3 23.4471C126.113 23.2931 125.858 23.1524 125.53 23.0385C125.202 22.9112 124.773 22.7772 124.244 22.6299C123.842 22.516 123.473 22.3887 123.132 22.2413C122.804 22.0872 122.515 21.8863 122.274 21.6384C122.047 21.3972 121.859 21.1025 121.718 20.7608C121.591 20.4058 121.524 19.9771 121.524 19.4746C121.524 18.4028 121.839 17.6056 122.469 17.0764C123.112 16.5471 123.969 16.2859 125.041 16.2859C125.698 16.2859 126.267 16.3529 126.756 16.4802C127.258 16.6074 127.674 16.7615 128.002 16.929L127.747 18.1482C127.533 18.0745 127.325 18.0142 127.124 17.9539C126.937 17.8802 126.743 17.8267 126.548 17.7798C126.347 17.7396 126.126 17.6994 125.885 17.6726C125.657 17.6458 125.396 17.6324 125.115 17.6324C124.445 17.6324 123.936 17.753 123.594 17.9941C123.252 18.2219 123.078 18.6841 123.078 19.3875C123.078 19.7024 123.118 19.9569 123.205 20.1579C123.293 20.3589 123.42 20.5264 123.594 20.6737C123.782 20.801 124.023 20.9149 124.324 21.0154C124.626 21.1159 124.987 21.2231 125.416 21.337C125.919 21.4776 126.354 21.6384 126.722 21.8059C127.091 21.9801 127.399 22.1944 127.647 22.449C127.888 22.7035 128.076 23.0184 128.203 23.3935C128.33 23.762 128.397 24.2108 128.397 24.72C128.397 25.6645 128.089 26.4416 127.473 27.0579C126.87 27.6742 125.959 27.9824 124.726 27.9824L124.719 27.9958ZM117.163 22.1877L115.321 22.382C114.436 22.4825 113.8 22.6969 113.411 23.0251C113.023 23.34 112.835 23.8826 112.835 24.653V24.8003C112.835 25.5037 113.003 25.9995 113.331 26.3009C113.673 26.6024 114.189 26.7498 114.872 26.7498C115.475 26.7498 115.944 26.6426 116.285 26.4282C116.64 26.2138 116.935 25.9727 117.163 25.698V22.181V22.1877ZM117.163 19.9167C117.163 19.6019 117.136 19.3071 117.076 19.0392C117.016 18.7645 116.922 18.5368 116.774 18.3559C116.647 18.1549 116.453 18.0008 116.198 17.8869C115.957 17.7731 115.642 17.7128 115.254 17.7128C114.711 17.7128 114.175 17.7865 113.646 17.9271C113.13 18.0544 112.581 18.2219 111.998 18.4229L111.743 17.1366C112.259 16.9089 112.802 16.7146 113.371 16.5605C113.941 16.3864 114.591 16.306 115.321 16.306C116.567 16.306 117.451 16.6409 117.98 17.3108C118.523 17.9673 118.798 19.0325 118.798 20.5063V25.9727C118.798 26.2875 118.858 26.5019 118.972 26.6158C119.086 26.7163 119.273 26.7632 119.528 26.7632H119.956L119.997 27.6407C119.896 27.7144 119.755 27.7747 119.568 27.835C119.38 27.9087 119.159 27.9422 118.905 27.9422C118.603 27.9422 118.302 27.8819 118.007 27.768L117.257 26.5689L116.272 27.6608C116.058 27.7613 115.796 27.8417 115.481 27.8953C115.18 27.969 114.845 28.0025 114.477 28.0025C114.034 28.0025 113.612 27.9422 113.211 27.8283C112.822 27.7144 112.48 27.5336 112.179 27.2924C111.891 27.0378 111.663 26.7096 111.496 26.3076C111.321 25.8923 111.241 25.3832 111.241 24.787C111.241 24.2309 111.321 23.7486 111.475 23.3534C111.63 22.938 111.871 22.5964 112.186 22.3217C112.514 22.0471 112.929 21.8327 113.432 21.6786C113.947 21.5245 114.544 21.4039 115.234 21.337L117.183 21.1628V19.9167H117.163ZM103.711 16.7883C103.926 16.6744 104.207 16.5672 104.549 16.4667C104.89 16.3529 105.286 16.2926 105.728 16.2926C106.645 16.2926 107.356 16.5672 107.871 17.1099C108.401 17.6525 108.662 18.5502 108.662 19.8096V27.701H107.014V19.555C107.014 18.8248 106.867 18.3291 106.565 18.0544C106.277 17.7798 105.862 17.6458 105.319 17.6458C104.776 17.6458 104.341 17.7396 103.966 17.9271C103.611 18.1013 103.229 18.3291 102.827 18.6104V27.701H101.179V19.555C101.179 18.8248 101.025 18.3291 100.71 18.0544C100.395 17.7798 99.9866 17.6458 99.4909 17.6458C98.9952 17.6458 98.5262 17.7329 98.1377 17.9003C97.7692 18.0544 97.3807 18.2822 96.9788 18.5635V27.6943H95.3308V16.5069H96.2754L96.9184 17.8803L97.8831 16.7883C98.1109 16.6744 98.3922 16.5672 98.7205 16.4667C99.0621 16.3529 99.4641 16.2926 99.9196 16.2926C100.335 16.2926 100.69 16.3328 100.991 16.4198C101.306 16.5069 101.601 16.6275 101.869 16.7816L102.639 17.9606L103.711 16.7816V16.7883ZM90.34 16.5069H91.988V27.6943H91.0434L90.3802 26.3679L89.4356 27.48C89.1945 27.5938 88.893 27.6943 88.538 27.7814C88.1829 27.8819 87.7676 27.9288 87.2919 27.9288C86.4077 27.9288 85.6842 27.6541 85.1282 27.1115C84.5855 26.5555 84.3109 25.6444 84.3109 24.3917V16.5003H85.9588V24.6463C85.9588 25.4033 86.1129 25.9258 86.4278 26.2139C86.756 26.5019 87.1781 26.6426 87.6939 26.6426C88.2767 26.6426 88.7657 26.5622 89.1543 26.4081C89.5562 26.2339 89.9448 25.9995 90.3333 25.698V16.5003L90.34 16.5069ZM77.2367 21.203C78.2482 21.203 78.965 20.9752 79.3804 20.5197C79.7957 20.0507 80.0034 19.2736 80.0034 18.2018V17.9472C80.0034 16.9022 79.789 16.1854 79.3603 15.7835C78.9316 15.3681 78.208 15.1604 77.1965 15.1604H74.8786V21.203H77.2367ZM73.0967 13.7402H77.3841C78.1545 13.7402 78.8244 13.8474 79.4005 14.0618C79.9766 14.2762 80.4455 14.5776 80.814 14.9595C81.1824 15.348 81.4571 15.8036 81.6312 16.3328C81.8188 16.862 81.9126 17.4381 81.9126 18.0678C81.9126 18.6975 81.8188 19.2603 81.6312 19.8029C81.4571 20.3321 81.1891 20.7943 80.814 21.1963C80.4589 21.5982 79.99 21.9131 79.4206 22.1408C78.8512 22.3686 78.1679 22.4825 77.3841 22.4825H74.8786V27.6943H73.0967V13.7402Z" fill="#006176"/>
</svg>