<svg width="188" height="188" viewBox="0 0 188 188" fill="none" xmlns="http://www.w3.org/2000/svg">
<g opacity="0.88">
<path d="M72.0457 79.4668H167.424C171.062 79.4668 174.005 82.4106 174.005 86.0481V135.67C174.005 135.975 173.98 136.262 173.938 136.558V158.18L157.18 142.252H72.0457C68.4082 142.252 65.4644 139.308 65.4644 135.67V86.0481C65.4644 82.4106 68.4082 79.4668 72.0457 79.4668Z" stroke="black" stroke-width="2" stroke-miterlimit="10"/>
<path d="M114.623 30H29.5989C29.4551 30 29.3197 30.0085 29.1844 30.0254L14 30.0423L24.0665 42.5197L23.7282 86.288C23.7282 89.9255 26.359 92.8778 29.5989 92.8778H114.623C117.863 92.8778 120.494 89.9255 120.494 86.288V36.5982C120.494 32.9607 117.863 30.0085 114.623 30.0085V30Z" stroke="black" stroke-width="2" stroke-miterlimit="10"/>
<path d="M25.5742 114.803C25.5911 116.47 26.86 117.865 28.5011 118.136L28.8733 118.195C31.115 118.457 32.7984 119.405 33.9235 121.046C35.0401 122.687 35.6069 124.497 35.6069 126.485C35.6069 128.473 34.9386 130.419 33.6021 132.052C32.2655 133.693 30.3029 134.513 27.7059 134.513C26.6739 134.513 25.5911 134.319 24.466 133.929C23.341 133.54 22.3089 132.872 21.3615 131.925C20.4056 130.977 19.6358 129.683 19.0267 128.042C18.4261 126.401 18.1216 124.328 18.1216 121.824C18.1216 117.163 19.4581 112.95 22.1397 109.195C23.9923 106.589 26.2002 104.347 28.7634 102.478C29.5331 101.911 30.506 102.816 29.9899 103.62C26.4371 109.102 25.5573 112.629 25.5742 114.803Z" fill="#C4D2E1" stroke="black" stroke-width="2" stroke-miterlimit="10"/>
<path d="M46.6546 115.293C46.7646 116.723 47.8812 117.865 49.2939 118.102L49.9368 118.212C52.1785 118.474 53.8619 119.422 54.987 121.063C56.1036 122.704 56.6704 124.514 56.6704 126.502C56.6704 128.49 56.0021 130.435 54.6655 132.068C53.329 133.709 51.3664 134.53 48.7694 134.53C47.7374 134.53 46.6546 134.335 45.5295 133.946C44.4044 133.557 43.3724 132.889 42.425 131.941C41.4691 130.994 40.6993 129.7 40.0902 128.058C39.4896 126.417 39.1851 124.345 39.1851 121.841C39.1851 117.18 40.5216 112.967 43.2032 109.211C45.0558 106.606 47.2637 104.364 49.8268 102.494C50.5966 101.928 51.5694 102.833 51.0534 103.636C47.2214 109.55 46.5023 113.195 46.6546 115.302V115.293Z" fill="#C4D2E1" stroke="black" stroke-width="2" stroke-miterlimit="10"/>
<path d="M146.86 73.4879C158.497 73.4879 167.932 64.0536 167.932 52.4158C167.932 40.778 158.497 31.3438 146.86 31.3438C135.222 31.3438 125.788 40.778 125.788 52.4158C125.788 64.0536 135.222 73.4879 146.86 73.4879Z" fill="#C4D2E1" stroke="black" stroke-width="2" stroke-miterlimit="10"/>
<path d="M146.996 31.4951V52.4149H157.823" stroke="black" stroke-width="2" stroke-miterlimit="10" stroke-linecap="round"/>
</g>
</svg>
